<svg id="svg" version="1.1" xmlns="http://www.w3.org/2000/svg" xmlns:xlink="http://www.w3.org/1999/xlink" width="400" height="400" viewBox="0, 0, 400,400"><g id="svgg"><path id="path0" d="M298.200 84.674 C 295.053 84.947,290.948 86.111,287.800 87.621 C 284.361 89.271,283.231 90.052,275.397 96.200 C 269.876 100.533,262.642 106.184,260.397 107.917 C 259.625 108.513,257.042 110.530,254.656 112.400 C 249.732 116.260,248.674 117.079,245.362 119.600 C 244.061 120.590,241.647 122.466,239.998 123.770 C 238.349 125.073,236.010 126.916,234.800 127.864 C 224.688 135.792,219.654 139.721,217.201 141.600 C 214.043 144.019,209.846 147.294,208.606 148.305 C 208.169 148.662,205.829 150.481,203.406 152.348 C 200.983 154.214,198.010 156.518,196.800 157.466 C 195.590 158.414,192.702 160.677,190.383 162.495 C 188.063 164.313,184.668 166.970,182.838 168.400 C 181.007 169.830,178.475 171.810,177.209 172.800 C 174.326 175.057,173.049 176.053,168.800 179.359 C 166.930 180.814,164.410 182.782,163.200 183.731 C 161.990 184.681,158.943 187.065,156.429 189.029 C 153.915 190.993,150.945 193.324,149.829 194.210 C 148.713 195.095,146.270 196.985,144.400 198.410 C 142.530 199.834,140.910 201.103,140.800 201.228 C 140.690 201.354,139.340 202.425,137.800 203.608 C 132.246 207.874,122.686 215.362,119.868 217.654 C 116.759 220.181,117.012 222.689,116.897 188.223 C 116.796 157.853,116.856 156.327,118.107 157.059 C 118.726 157.420,118.892 157.549,126.760 163.809 C 129.532 166.014,133.330 169.014,135.200 170.475 C 137.070 171.935,138.997 173.506,139.483 173.965 C 140.373 174.806,141.420 175.060,141.667 174.494 C 141.740 174.326,145.850 171.055,150.800 167.226 C 155.750 163.396,160.970 159.346,162.400 158.226 C 163.830 157.105,165.699 155.651,166.553 154.994 C 167.408 154.337,169.928 152.390,172.153 150.666 C 174.379 148.943,177.505 146.551,179.100 145.350 C 182.652 142.678,182.675 143.025,178.749 139.948 C 173.978 136.210,163.339 127.811,160.800 125.779 C 156.877 122.641,154.323 120.614,147.200 114.992 C 143.350 111.953,138.830 108.371,137.156 107.033 C 135.482 105.695,132.715 103.520,131.008 102.200 C 129.301 100.880,127.589 99.530,127.203 99.200 C 115.288 89.016,108.955 85.772,100.081 85.309 C 92.361 84.905,82.918 87.677,78.735 91.575 C 78.247 92.029,77.297 92.785,76.624 93.255 C 73.498 95.437,68.449 103.125,66.908 108.051 C 66.183 110.369,65.584 324.000,66.302 324.000 C 66.474 324.000,67.443 323.325,68.455 322.500 C 69.468 321.675,71.594 320.010,73.180 318.800 C 74.766 317.590,77.107 315.790,78.382 314.800 C 79.657 313.810,81.992 312.010,83.571 310.800 C 86.276 308.726,94.926 301.993,95.804 301.277 C 96.162 300.985,99.620 298.351,103.929 295.086 C 104.738 294.473,105.687 293.734,106.038 293.443 C 106.389 293.152,107.919 291.952,109.438 290.775 C 110.957 289.598,112.380 288.491,112.600 288.315 C 113.608 287.508,122.656 280.463,126.600 277.414 C 127.260 276.904,129.269 275.342,131.063 273.943 C 132.858 272.545,135.625 270.410,137.211 269.200 C 138.798 267.990,140.770 266.460,141.594 265.800 C 143.111 264.585,151.781 257.838,154.187 256.000 C 160.843 250.916,165.332 247.452,169.400 244.263 C 171.985 242.236,179.564 236.401,182.992 233.800 C 184.152 232.920,187.598 230.250,190.650 227.866 C 193.703 225.482,197.910 222.208,200.000 220.591 C 202.090 218.973,205.960 215.972,208.600 213.921 C 213.991 209.734,214.535 209.316,217.844 206.828 C 219.140 205.853,220.290 204.944,220.400 204.807 C 220.510 204.670,221.316 204.027,222.192 203.379 C 223.067 202.730,225.609 200.760,227.840 199.000 C 234.338 193.874,241.600 188.249,242.536 187.615 C 243.011 187.294,244.413 186.214,245.651 185.215 C 246.888 184.217,249.203 182.410,250.794 181.200 C 252.384 179.990,254.728 178.190,256.001 177.200 C 257.274 176.210,259.251 174.680,260.394 173.800 C 261.537 172.920,263.851 171.106,265.536 169.769 C 268.646 167.302,284.357 155.126,288.207 152.200 C 290.763 150.258,292.748 148.716,295.419 146.600 C 296.530 145.720,298.039 144.550,298.773 144.000 C 299.507 143.450,303.464 140.390,307.566 137.200 C 311.669 134.010,316.099 130.590,317.411 129.600 C 318.724 128.610,321.276 126.630,323.082 125.200 C 324.889 123.770,328.017 121.340,330.033 119.800 L 333.699 117.000 333.462 113.800 C 332.798 104.808,328.939 97.740,321.049 91.062 C 316.923 87.568,305.940 84.025,300.610 84.467 C 300.165 84.504,299.080 84.597,298.200 84.674 " stroke="none" fill="#d9d9d9" fill-rule="evenodd"></path><path id="path1" d="M331.400 145.738 C 329.755 147.097,329.037 147.651,312.443 160.339 C 288.919 178.328,283.578 182.496,283.007 183.311 C 282.270 184.363,282.082 295.767,282.807 302.091 C 286.078 330.645,326.816 333.425,333.389 305.542 C 334.211 302.055,334.319 144.395,333.500 144.408 C 333.225 144.412,332.280 145.011,331.400 145.738 " stroke="none" fill="#d20423" fill-rule="evenodd"></path><path id="path2" d="M9.500 0.285 C 8.895 0.378,8.400 0.621,8.400 0.827 C 8.400 1.032,8.127 1.200,7.794 1.200 C 7.023 1.200,1.200 6.994,1.200 7.760 C 1.200 8.075,0.975 8.408,0.700 8.500 C -0.036 8.745,-0.036 391.255,0.700 391.500 C 0.975 391.592,1.200 391.925,1.200 392.240 C 1.200 392.987,7.013 398.800,7.760 398.800 C 8.075 398.800,8.408 399.025,8.500 399.300 C 8.745 400.036,391.255 400.036,391.500 399.300 C 391.592 399.025,391.925 398.800,392.240 398.800 C 392.987 398.800,398.800 392.987,398.800 392.240 C 398.800 391.925,399.025 391.592,399.300 391.500 C 400.036 391.255,400.036 8.745,399.300 8.500 C 399.025 8.408,398.800 8.075,398.800 7.760 C 398.800 7.013,392.987 1.200,392.240 1.200 C 391.925 1.200,391.592 0.975,391.500 0.700 C 391.340 0.221,12.617 -0.190,9.500 0.285 M308.228 84.191 C 316.188 85.851,323.457 90.533,328.373 97.163 C 331.884 101.900,334.108 107.634,334.611 113.251 C 334.985 117.414,334.979 117.424,329.895 121.221 C 327.423 123.068,325.310 124.674,325.200 124.790 C 325.090 124.907,323.920 125.811,322.600 126.800 C 321.280 127.789,320.110 128.701,320.000 128.827 C 319.890 128.953,318.540 130.025,317.000 131.208 C 310.729 136.024,308.928 137.432,307.428 138.686 C 306.563 139.409,305.685 140.000,305.475 140.000 C 305.265 140.000,304.803 140.332,304.447 140.737 C 303.816 141.455,301.672 143.160,297.200 146.501 C 295.990 147.405,294.910 148.262,294.800 148.407 C 294.690 148.551,293.250 149.678,291.600 150.911 C 289.950 152.144,287.598 153.928,286.373 154.876 C 285.149 155.824,283.439 157.139,282.573 157.798 C 281.708 158.456,280.910 159.100,280.800 159.227 C 280.690 159.355,279.095 160.616,277.256 162.030 C 274.043 164.499,271.467 166.502,266.854 170.118 C 265.674 171.043,264.319 172.070,263.844 172.400 C 263.369 172.730,261.029 174.530,258.643 176.400 C 256.257 178.270,253.354 180.520,252.192 181.400 C 251.030 182.280,248.140 184.530,245.770 186.400 C 243.400 188.270,241.148 189.980,240.765 190.200 C 240.383 190.420,239.429 191.185,238.646 191.900 C 237.862 192.615,237.103 193.200,236.959 193.200 C 236.815 193.200,236.032 193.785,235.219 194.500 C 233.938 195.626,231.626 197.437,222.043 204.820 C 221.029 205.601,218.220 207.758,215.800 209.613 C 213.380 211.469,211.130 213.204,210.800 213.470 C 207.544 216.089,203.537 219.196,202.400 219.982 C 201.630 220.514,200.441 221.410,199.757 221.975 C 197.740 223.638,197.059 224.182,194.362 226.272 C 191.412 228.560,185.464 233.200,183.051 235.097 C 182.143 235.811,180.050 237.385,178.400 238.594 C 176.750 239.804,174.140 241.789,172.600 243.005 C 165.757 248.409,162.744 250.730,159.363 253.200 C 158.309 253.970,156.806 255.152,156.023 255.826 C 155.240 256.501,153.970 257.487,153.200 258.018 C 152.430 258.548,151.423 259.347,150.962 259.791 C 150.501 260.236,149.267 261.230,148.218 262.000 C 145.603 263.921,144.371 264.871,139.404 268.800 C 137.039 270.670,134.142 272.920,132.966 273.800 C 131.790 274.680,129.741 276.255,128.414 277.300 C 123.932 280.828,121.139 282.993,118.995 284.600 C 116.823 286.228,115.386 287.344,111.781 290.200 C 110.670 291.080,109.157 292.250,108.417 292.800 C 107.678 293.350,106.877 293.987,106.637 294.215 C 106.074 294.749,96.504 302.170,94.018 304.000 C 92.054 305.445,87.805 308.729,84.054 311.700 C 82.874 312.635,80.955 314.120,79.790 315.000 C 74.818 318.756,72.968 320.191,72.470 320.681 C 72.179 320.968,71.099 321.780,70.070 322.485 C 69.042 323.190,67.843 324.096,67.408 324.499 C 66.972 324.902,66.252 325.179,65.808 325.116 C 64.688 324.955,64.305 114.750,65.415 109.835 C 68.045 98.187,77.282 88.921,90.200 84.970 C 94.909 83.530,105.891 84.125,109.595 86.022 C 109.928 86.192,111.224 86.789,112.476 87.349 C 115.151 88.545,117.295 90.032,123.790 95.193 C 129.618 99.824,130.502 100.517,133.469 102.774 C 134.751 103.749,136.070 104.838,136.400 105.193 C 136.730 105.548,137.630 106.271,138.400 106.800 C 139.170 107.329,139.890 107.863,140.000 107.987 C 140.305 108.332,142.516 110.102,143.761 111.000 C 144.372 111.440,146.304 112.970,148.056 114.400 C 149.807 115.830,151.764 117.382,152.403 117.849 C 153.043 118.316,154.249 119.252,155.083 119.930 C 155.917 120.608,158.220 122.435,160.200 123.989 C 162.180 125.544,164.769 127.577,165.953 128.508 C 167.137 129.438,168.757 130.746,169.553 131.413 C 170.349 132.081,171.630 133.098,172.400 133.673 C 173.170 134.248,174.160 135.052,174.600 135.459 C 175.040 135.867,176.120 136.691,177.000 137.290 C 177.880 137.890,179.050 138.795,179.600 139.301 C 180.150 139.808,181.185 140.635,181.900 141.139 C 183.947 142.581,183.624 143.083,177.735 147.604 C 174.729 149.912,171.714 152.261,171.035 152.825 C 170.356 153.390,169.170 154.284,168.400 154.812 C 167.630 155.341,166.748 156.019,166.439 156.319 C 166.130 156.619,164.960 157.562,163.839 158.415 C 162.718 159.267,160.630 160.883,159.200 162.005 C 155.830 164.650,152.176 167.465,146.028 172.154 C 140.073 176.697,141.385 177.019,130.999 168.460 C 130.558 168.097,129.389 167.170,128.400 166.400 C 127.411 165.630,126.242 164.700,125.801 164.334 C 125.361 163.967,123.380 162.399,121.400 160.850 L 117.800 158.032 117.697 187.680 C 117.641 203.986,117.676 217.409,117.774 217.508 C 117.941 217.674,120.349 216.149,120.800 215.591 C 120.979 215.370,122.053 214.538,127.131 210.686 C 127.939 210.074,129.301 209.001,130.157 208.302 C 131.013 207.603,132.310 206.574,133.039 206.016 C 137.345 202.715,141.027 199.826,141.200 199.610 C 141.310 199.473,142.030 198.926,142.800 198.394 C 143.570 197.862,144.452 197.181,144.761 196.881 C 145.342 196.315,148.714 193.685,150.913 192.082 C 151.606 191.576,152.809 190.649,153.586 190.021 C 155.303 188.634,161.270 183.923,163.200 182.431 C 163.970 181.835,165.770 180.446,167.200 179.343 C 175.321 173.081,177.856 171.079,179.305 169.789 C 179.912 169.247,181.112 168.360,181.971 167.818 C 182.830 167.276,183.643 166.654,183.778 166.436 C 184.005 166.068,185.643 164.775,190.600 161.050 C 191.700 160.224,192.949 159.262,193.376 158.912 C 193.803 158.563,195.153 157.508,196.376 156.568 C 197.599 155.628,201.421 152.641,204.870 149.929 C 208.318 147.218,212.428 144.010,214.002 142.800 C 215.576 141.590,218.803 139.070,221.174 137.200 C 223.545 135.330,226.880 132.720,228.584 131.400 C 231.265 129.324,235.234 126.223,237.200 124.668 C 237.530 124.407,239.780 122.669,242.200 120.806 C 248.480 115.972,250.914 114.061,251.600 113.430 C 251.930 113.126,253.307 112.064,254.661 111.069 C 256.014 110.074,257.454 108.987,257.861 108.654 C 258.745 107.929,264.441 103.442,266.407 101.923 C 275.187 95.133,276.907 93.787,278.586 92.388 C 287.726 84.771,297.739 82.002,308.228 84.191 M334.400 223.474 C 334.400 310.586,334.547 305.058,332.095 310.400 C 325.020 325.815,305.260 330.451,291.912 319.828 C 287.087 315.988,283.640 309.972,282.615 303.600 C 281.799 298.528,281.703 184.774,282.514 183.343 C 282.781 182.871,285.250 180.763,288.000 178.657 C 290.750 176.552,293.180 174.678,293.400 174.493 C 293.620 174.307,296.230 172.304,299.200 170.042 C 302.170 167.780,305.921 164.910,307.535 163.665 C 309.149 162.419,310.977 161.040,311.597 160.600 C 312.217 160.160,315.756 157.455,319.462 154.588 C 323.168 151.722,326.665 149.022,327.234 148.588 C 332.173 144.824,333.360 144.000,333.844 144.000 C 334.317 144.000,334.400 155.893,334.400 223.474 " stroke="none" fill="#040414" fill-rule="evenodd"></path><path id="path3" d="M293.030 84.458 C 287.946 85.875,283.421 88.359,278.586 92.388 C 276.907 93.787,275.187 95.133,266.407 101.923 C 264.441 103.442,258.745 107.929,257.861 108.654 C 257.454 108.987,256.014 110.074,254.661 111.069 C 253.307 112.064,251.930 113.126,251.600 113.430 C 250.914 114.061,248.480 115.972,242.200 120.806 C 239.780 122.669,237.530 124.407,237.200 124.668 C 235.234 126.223,231.265 129.324,228.584 131.400 C 226.880 132.720,223.545 135.330,221.174 137.200 C 218.803 139.070,215.576 141.590,214.002 142.800 C 212.428 144.010,208.318 147.218,204.870 149.929 C 201.421 152.641,197.599 155.628,196.376 156.568 C 195.153 157.508,193.803 158.563,193.376 158.912 C 192.949 159.262,191.700 160.224,190.600 161.050 C 185.643 164.775,184.005 166.068,183.778 166.436 C 183.643 166.654,182.830 167.276,181.971 167.818 C 181.112 168.360,179.912 169.247,179.305 169.789 C 177.856 171.079,175.321 173.081,167.200 179.343 C 165.770 180.446,163.970 181.835,163.200 182.431 C 161.270 183.923,155.303 188.634,153.586 190.021 C 152.809 190.649,151.606 191.576,150.913 192.082 C 148.714 193.685,145.342 196.315,144.761 196.881 C 144.452 197.181,143.570 197.862,142.800 198.394 C 142.030 198.926,141.310 199.473,141.200 199.610 C 141.027 199.826,137.345 202.715,133.039 206.016 C 132.310 206.574,131.013 207.603,130.157 208.302 C 129.301 209.001,127.939 210.074,127.131 210.686 C 122.053 214.538,120.979 215.370,120.800 215.591 C 120.349 216.149,117.941 217.674,117.774 217.508 C 117.676 217.409,117.641 203.986,117.697 187.680 L 117.800 158.032 121.400 160.850 C 123.380 162.399,125.361 163.967,125.801 164.334 C 126.242 164.700,127.411 165.630,128.400 166.400 C 129.389 167.170,130.558 168.097,130.999 168.460 C 141.385 177.019,140.073 176.697,146.028 172.154 C 152.109 167.516,155.788 164.682,159.200 162.007 C 160.630 160.886,162.921 159.120,164.292 158.084 C 165.662 157.048,166.787 156.050,166.792 155.867 C 166.796 155.683,166.369 155.863,165.843 156.267 C 165.317 156.670,159.602 161.095,153.143 166.100 C 146.684 171.104,141.130 175.198,140.800 175.196 C 140.470 175.194,136.330 172.118,131.600 168.360 C 120.573 159.600,117.959 157.600,117.540 157.600 C 117.353 157.600,117.200 171.299,117.200 188.043 C 117.200 215.099,117.268 218.460,117.807 218.253 C 118.141 218.124,121.585 215.540,125.461 212.510 C 142.093 199.506,161.083 184.682,163.778 182.600 C 164.917 181.720,169.053 178.480,172.968 175.400 C 181.405 168.763,184.507 166.334,186.403 164.877 C 187.175 164.285,189.695 162.327,192.003 160.527 C 194.311 158.727,199.800 154.450,204.200 151.022 C 208.600 147.595,212.470 144.567,212.800 144.293 C 213.570 143.655,225.080 134.690,227.760 132.641 C 228.882 131.783,230.263 130.703,230.829 130.241 C 231.394 129.778,232.384 129.002,233.029 128.516 C 233.673 128.029,238.610 124.185,244.000 119.973 C 249.390 115.760,254.790 111.568,256.000 110.657 C 257.210 109.746,258.441 108.772,258.735 108.494 C 259.029 108.216,259.929 107.496,260.735 106.895 C 261.541 106.294,264.270 104.178,266.800 102.191 C 269.330 100.205,271.874 98.224,272.454 97.790 C 273.034 97.355,275.908 95.126,278.841 92.837 C 286.169 87.115,291.342 84.730,297.937 84.031 L 301.000 83.706 298.400 83.696 C 296.970 83.691,294.554 84.034,293.030 84.458 M304.392 84.050 C 320.304 85.892,332.357 97.710,334.217 113.293 C 334.630 116.759,334.363 117.271,330.669 120.074 C 328.839 121.463,323.864 125.300,319.614 128.600 C 315.364 131.900,310.952 135.320,309.810 136.200 C 305.891 139.220,305.001 139.991,305.428 139.996 C 305.663 139.998,306.563 139.409,307.428 138.686 C 308.928 137.432,310.729 136.024,317.000 131.208 C 318.540 130.025,319.890 128.953,320.000 128.827 C 320.110 128.701,321.280 127.789,322.600 126.800 C 323.920 125.811,325.090 124.907,325.200 124.790 C 325.310 124.674,327.423 123.068,329.895 121.221 C 334.979 117.424,334.985 117.414,334.611 113.251 C 333.358 99.279,322.332 87.133,308.228 84.191 C 306.673 83.866,304.500 83.624,303.400 83.652 C 301.608 83.698,301.712 83.740,304.392 84.050 M93.000 84.375 C 86.829 85.395,80.161 88.745,74.683 93.577 C 73.396 94.713,68.800 100.697,68.800 101.237 C 68.800 101.936,69.141 101.585,70.313 99.680 C 72.345 96.377,79.255 89.600,80.591 89.600 C 80.715 89.600,81.487 89.180,82.308 88.666 C 93.891 81.419,108.155 83.403,121.770 94.155 C 137.631 106.682,141.341 109.617,147.614 114.600 C 151.491 117.680,158.425 123.170,163.022 126.800 C 167.619 130.430,172.403 134.210,173.653 135.200 C 174.902 136.190,177.382 138.142,179.162 139.538 C 183.437 142.889,183.602 142.508,174.976 149.197 C 170.893 152.363,167.440 155.135,167.304 155.356 C 167.014 155.824,169.249 154.309,171.035 152.825 C 171.714 152.261,174.729 149.912,177.735 147.604 C 183.624 143.083,183.947 142.581,181.900 141.139 C 181.185 140.635,180.150 139.808,179.600 139.301 C 179.050 138.795,177.880 137.890,177.000 137.290 C 176.120 136.691,175.040 135.867,174.600 135.459 C 174.160 135.052,173.170 134.248,172.400 133.673 C 171.630 133.098,170.349 132.081,169.553 131.413 C 168.757 130.746,167.137 129.438,165.953 128.508 C 164.769 127.577,162.180 125.544,160.200 123.989 C 158.220 122.435,155.917 120.608,155.083 119.930 C 154.249 119.252,153.043 118.316,152.403 117.849 C 151.764 117.382,149.807 115.830,148.056 114.400 C 146.304 112.970,144.372 111.440,143.761 111.000 C 142.516 110.102,140.305 108.332,140.000 107.987 C 139.890 107.863,139.170 107.329,138.400 106.800 C 137.630 106.271,136.730 105.548,136.400 105.193 C 136.070 104.838,134.751 103.749,133.469 102.774 C 130.502 100.517,129.618 99.824,123.790 95.193 C 117.309 90.043,115.155 88.549,112.476 87.342 C 111.224 86.778,109.840 86.156,109.400 85.958 C 106.103 84.478,97.436 83.641,93.000 84.375 M67.223 104.550 C 64.609 110.257,64.780 101.882,64.895 218.800 C 65.000 324.993,65.000 325.000,65.808 325.116 C 66.252 325.179,66.972 324.902,67.408 324.499 C 67.843 324.096,69.042 323.190,70.070 322.485 C 71.099 321.780,72.179 320.968,72.470 320.681 C 72.968 320.191,74.818 318.756,79.790 315.000 C 80.955 314.120,82.874 312.635,84.054 311.700 C 87.805 308.729,92.054 305.445,94.018 304.000 C 96.504 302.170,106.074 294.749,106.637 294.215 C 106.877 293.987,107.674 293.350,108.408 292.800 C 112.214 289.948,115.084 287.661,116.368 286.456 C 118.092 284.838,116.989 285.579,112.332 289.168 C 110.500 290.581,108.280 292.291,107.400 292.968 C 106.520 293.646,105.710 294.299,105.600 294.419 C 105.490 294.539,102.520 296.845,99.000 299.543 C 95.480 302.241,92.313 304.682,91.962 304.967 C 85.124 310.529,66.210 324.803,65.841 324.680 C 65.521 324.574,65.400 295.201,65.400 217.967 L 65.400 111.400 66.341 108.400 C 66.858 106.750,67.622 104.694,68.038 103.831 C 68.454 102.967,68.714 102.180,68.615 102.082 C 68.516 101.983,67.890 103.094,67.223 104.550 M302.400 141.871 C 300.496 143.397,291.517 150.371,284.982 155.400 C 283.838 156.280,278.515 160.411,273.151 164.581 C 267.788 168.750,261.510 173.602,259.200 175.363 C 256.890 177.123,254.910 178.669,254.800 178.798 C 254.602 179.031,246.846 185.059,244.763 186.600 C 243.838 187.284,238.845 191.156,221.073 204.970 C 219.354 206.306,216.834 208.270,215.473 209.332 C 213.242 211.075,209.318 214.102,205.789 216.800 C 205.069 217.350,200.207 221.130,194.984 225.200 C 189.761 229.270,183.111 234.400,180.206 236.600 C 177.301 238.800,172.331 242.625,169.162 245.100 C 165.993 247.575,160.700 251.683,157.400 254.230 C 154.100 256.777,151.040 259.165,150.600 259.537 C 150.160 259.909,149.080 260.747,148.200 261.400 C 147.320 262.053,145.790 263.237,144.800 264.032 C 143.810 264.826,137.375 269.831,130.500 275.153 C 123.625 280.475,118.000 284.924,118.000 285.039 C 118.000 285.346,118.795 284.840,120.640 283.361 C 121.541 282.637,123.161 281.371,124.240 280.546 C 125.318 279.722,127.241 278.226,128.514 277.223 C 129.786 276.221,131.790 274.680,132.966 273.800 C 134.142 272.920,137.039 270.670,139.404 268.800 C 144.371 264.871,145.603 263.921,148.218 262.000 C 149.267 261.230,150.501 260.236,150.962 259.791 C 151.423 259.347,152.430 258.548,153.200 258.018 C 153.970 257.487,155.240 256.501,156.023 255.826 C 156.806 255.152,158.309 253.970,159.363 253.200 C 162.744 250.730,165.757 248.409,172.600 243.005 C 174.140 241.789,176.750 239.804,178.400 238.594 C 180.050 237.385,182.143 235.811,183.051 235.097 C 185.464 233.200,191.412 228.560,194.362 226.272 C 197.059 224.182,197.740 223.638,199.757 221.975 C 200.441 221.410,201.630 220.514,202.400 219.982 C 203.537 219.196,207.544 216.089,210.800 213.470 C 211.130 213.204,213.380 211.469,215.800 209.613 C 218.220 207.758,221.029 205.601,222.043 204.820 C 231.626 197.437,233.938 195.626,235.219 194.500 C 236.032 193.785,236.815 193.200,236.959 193.200 C 237.103 193.200,237.862 192.615,238.646 191.900 C 239.429 191.185,240.383 190.420,240.765 190.200 C 241.148 189.980,243.400 188.270,245.770 186.400 C 248.140 184.530,251.030 182.280,252.192 181.400 C 253.354 180.520,256.257 178.270,258.643 176.400 C 261.029 174.530,263.369 172.730,263.844 172.400 C 264.319 172.070,265.674 171.043,266.854 170.118 C 271.467 166.502,274.043 164.499,277.256 162.030 C 279.095 160.616,280.690 159.355,280.800 159.227 C 280.910 159.100,281.708 158.456,282.573 157.798 C 283.439 157.139,285.149 155.824,286.373 154.876 C 287.598 153.928,289.950 152.144,291.600 150.911 C 293.250 149.678,294.690 148.551,294.800 148.407 C 294.910 148.262,295.990 147.405,297.200 146.501 C 303.090 142.101,305.038 140.484,304.748 140.235 C 304.666 140.166,303.610 140.902,302.400 141.871 M333.505 144.333 C 334.075 144.695,334.053 304.122,333.482 306.000 L 333.177 307.000 333.689 306.000 C 334.614 304.189,334.630 143.998,333.705 144.006 C 333.197 144.011,333.141 144.102,333.505 144.333 M330.300 146.206 C 329.035 147.199,328.000 148.111,328.000 148.232 C 328.000 148.354,329.080 147.605,330.400 146.568 C 332.522 144.901,333.054 144.399,332.700 144.400 C 332.645 144.400,331.565 145.213,330.300 146.206 M320.600 153.635 C 316.860 156.507,313.440 159.230,313.000 159.686 C 312.560 160.142,314.360 158.862,317.000 156.841 C 319.640 154.820,323.105 152.174,324.700 150.961 C 327.192 149.066,327.945 148.378,327.500 148.406 C 327.445 148.410,324.340 150.763,320.600 153.635 M309.293 162.300 C 306.558 164.458,304.948 165.695,298.248 170.788 C 295.634 172.774,293.609 174.400,293.748 174.400 C 294.281 174.400,312.449 160.440,311.951 160.413 C 311.814 160.406,310.618 161.255,309.293 162.300 M287.979 178.643 C 285.241 180.756,282.781 182.871,282.514 183.343 C 281.981 184.283,281.804 298.499,282.330 302.000 C 282.478 302.990,282.549 276.912,282.487 244.049 C 282.388 191.377,282.446 184.189,282.977 183.378 C 283.309 182.873,285.744 180.801,288.390 178.775 C 292.697 175.476,293.495 174.800,293.079 174.800 C 293.013 174.800,290.718 176.529,287.979 178.643 M283.002 305.530 C 283.205 307.151,285.307 312.400,285.753 312.400 C 285.864 312.400,285.523 311.455,284.995 310.300 C 284.466 309.145,283.753 307.210,283.409 306.000 C 282.819 303.921,282.797 303.895,283.002 305.530 M332.832 307.519 C 332.814 307.805,332.441 308.781,332.003 309.689 C 331.564 310.596,331.290 311.423,331.393 311.526 C 331.681 311.815,333.249 307.933,333.044 307.438 C 332.935 307.173,332.851 307.205,332.832 307.519 M330.208 313.312 C 329.795 314.021,328.185 315.936,326.629 317.569 C 324.924 319.359,324.359 320.123,325.208 319.492 C 327.232 317.988,331.572 312.639,331.129 312.195 C 331.035 312.101,330.620 312.604,330.208 313.312 M286.520 313.800 C 288.547 317.777,297.374 324.465,300.491 324.387 C 300.771 324.380,299.740 323.839,298.200 323.185 C 294.532 321.627,290.540 318.589,288.378 315.711 C 286.105 312.685,285.783 312.354,286.520 313.800 M321.200 321.830 C 319.990 322.582,319.190 323.197,319.422 323.198 C 319.915 323.200,323.600 320.916,323.600 320.609 C 323.600 320.329,323.693 320.281,321.200 321.830 M317.000 323.814 C 316.340 324.117,316.070 324.366,316.400 324.368 C 316.730 324.370,317.450 324.114,318.000 323.800 C 319.265 323.077,318.589 323.087,317.000 323.814 M301.800 324.790 C 302.564 325.128,305.114 325.357,304.767 325.056 C 304.675 324.976,303.790 324.804,302.800 324.673 C 301.598 324.514,301.266 324.553,301.800 324.790 M313.400 324.800 C 312.311 325.077,312.293 325.107,313.200 325.125 C 313.750 325.135,314.560 324.989,315.000 324.800 C 315.986 324.376,315.066 324.376,313.400 324.800 M306.700 325.493 C 307.635 325.577,309.165 325.577,310.100 325.493 C 311.035 325.409,310.270 325.340,308.400 325.340 C 306.530 325.340,305.765 325.409,306.700 325.493 " stroke="none" fill="#493e49" fill-rule="evenodd"></path><path id="path4" d="M297.937 84.041 C 291.374 84.715,286.179 87.107,278.841 92.837 C 275.908 95.126,273.034 97.355,272.454 97.790 C 271.874 98.224,269.330 100.205,266.800 102.191 C 264.270 104.178,261.541 106.294,260.735 106.895 C 259.929 107.496,259.029 108.216,258.735 108.494 C 258.441 108.772,257.210 109.746,256.000 110.657 C 254.790 111.568,249.390 115.760,244.000 119.973 C 238.610 124.185,233.673 128.029,233.029 128.516 C 232.384 129.002,231.394 129.778,230.829 130.241 C 230.263 130.703,228.882 131.783,227.760 132.641 C 225.080 134.690,213.570 143.655,212.800 144.293 C 212.470 144.567,208.600 147.595,204.200 151.022 C 199.800 154.450,194.311 158.727,192.003 160.527 C 189.695 162.327,187.175 164.285,186.403 164.877 C 184.507 166.334,181.405 168.763,172.968 175.400 C 169.053 178.480,164.917 181.720,163.778 182.600 C 161.083 184.682,142.093 199.506,125.461 212.510 C 121.585 215.540,118.141 218.124,117.807 218.253 C 117.268 218.460,117.200 215.099,117.200 188.043 C 117.200 171.299,117.353 157.600,117.540 157.600 C 117.959 157.600,120.573 159.600,131.600 168.360 C 136.330 172.118,140.470 175.194,140.800 175.196 C 141.130 175.197,146.530 171.223,152.800 166.364 C 159.070 161.505,164.834 157.051,165.609 156.465 C 174.797 149.524,182.400 143.315,182.400 142.755 C 182.400 142.382,180.943 140.934,179.162 139.538 C 177.382 138.142,174.902 136.190,173.653 135.200 C 172.403 134.210,167.619 130.430,163.022 126.800 C 158.425 123.170,151.491 117.680,147.614 114.600 C 141.341 109.617,137.631 106.682,121.770 94.155 C 108.155 83.403,93.891 81.419,82.308 88.666 C 81.487 89.180,80.715 89.600,80.591 89.600 C 79.980 89.600,75.935 92.963,73.892 95.170 C 70.174 99.186,68.086 102.848,66.336 108.418 L 65.400 111.400 65.400 217.967 C 65.400 295.201,65.521 324.574,65.841 324.680 C 66.210 324.803,85.227 310.451,91.962 304.966 C 92.313 304.681,95.187 302.459,98.348 300.029 C 101.509 297.600,104.729 295.114,105.503 294.506 C 108.897 291.837,111.705 289.654,114.257 287.698 C 115.766 286.542,120.150 283.147,124.000 280.152 C 139.701 267.941,146.133 262.959,147.181 262.200 C 147.787 261.760,148.985 260.832,149.842 260.137 C 150.699 259.443,154.100 256.788,157.400 254.237 C 160.700 251.686,165.993 247.575,169.162 245.100 C 172.331 242.625,177.301 238.800,180.206 236.600 C 183.111 234.400,189.761 229.270,194.984 225.200 C 200.207 221.130,205.069 217.350,205.789 216.800 C 209.318 214.102,213.242 211.075,215.473 209.332 C 216.834 208.270,219.354 206.306,221.073 204.970 C 238.845 191.156,243.838 187.284,244.763 186.600 C 246.846 185.059,254.602 179.031,254.800 178.798 C 254.910 178.669,256.890 177.123,259.200 175.363 C 261.510 173.602,267.788 168.750,273.151 164.581 C 278.515 160.411,283.838 156.280,284.982 155.400 C 286.125 154.520,290.081 151.460,293.772 148.600 C 297.464 145.740,302.220 142.060,304.342 140.421 C 311.107 135.199,311.739 134.709,319.611 128.600 C 323.862 125.300,328.839 121.463,330.669 120.074 C 334.363 117.271,334.630 116.759,334.217 113.293 C 332.390 97.989,320.017 85.642,305.052 84.191 C 303.703 84.060,302.240 83.902,301.800 83.840 C 301.360 83.778,299.621 83.868,297.937 84.041 M304.765 84.819 C 310.894 85.588,317.636 88.172,321.049 91.062 C 328.939 97.740,332.798 104.808,333.462 113.800 L 333.699 117.000 330.033 119.800 C 328.017 121.340,324.889 123.770,323.082 125.200 C 321.276 126.630,318.724 128.610,317.411 129.600 C 316.099 130.590,311.669 134.010,307.566 137.200 C 303.464 140.390,299.507 143.450,298.773 144.000 C 298.039 144.550,296.530 145.720,295.419 146.600 C 292.748 148.716,290.763 150.258,288.207 152.200 C 284.357 155.126,268.646 167.302,265.536 169.769 C 263.851 171.106,261.537 172.920,260.394 173.800 C 259.251 174.680,257.274 176.210,256.001 177.200 C 254.728 178.190,252.384 179.990,250.794 181.200 C 249.203 182.410,246.888 184.217,245.651 185.215 C 244.413 186.214,243.011 187.294,242.536 187.615 C 241.600 188.249,234.338 193.874,227.840 199.000 C 225.609 200.760,223.067 202.730,222.192 203.379 C 221.316 204.027,220.510 204.670,220.400 204.807 C 220.290 204.944,219.140 205.853,217.844 206.828 C 214.535 209.316,213.991 209.734,208.600 213.921 C 205.960 215.972,202.090 218.973,200.000 220.591 C 197.910 222.208,193.703 225.482,190.650 227.866 C 187.598 230.250,184.152 232.920,182.992 233.800 C 179.564 236.401,171.985 242.236,169.400 244.263 C 165.332 247.452,160.843 250.916,154.187 256.000 C 151.781 257.838,143.111 264.585,141.594 265.800 C 140.770 266.460,138.798 267.990,137.211 269.200 C 135.625 270.410,132.858 272.545,131.063 273.943 C 129.269 275.342,127.260 276.904,126.600 277.414 C 122.656 280.463,113.608 287.508,112.600 288.315 C 112.380 288.491,110.957 289.598,109.438 290.775 C 107.919 291.952,106.389 293.152,106.038 293.443 C 105.687 293.734,104.738 294.473,103.929 295.086 C 99.620 298.351,96.162 300.985,95.804 301.277 C 94.926 301.993,86.276 308.726,83.571 310.800 C 81.992 312.010,79.657 313.810,78.382 314.800 C 77.107 315.790,74.766 317.590,73.180 318.800 C 71.594 320.010,69.468 321.675,68.455 322.500 C 67.443 323.325,66.474 324.000,66.302 324.000 C 65.584 324.000,66.183 110.369,66.908 108.051 C 68.449 103.125,73.498 95.437,76.624 93.255 C 77.297 92.785,78.247 92.029,78.735 91.575 C 88.013 82.931,106.603 83.265,118.429 92.289 C 121.623 94.725,126.021 98.190,127.203 99.200 C 127.589 99.530,129.301 100.880,131.008 102.200 C 132.715 103.520,135.482 105.695,137.156 107.033 C 138.830 108.371,143.350 111.953,147.200 114.992 C 154.323 120.614,156.877 122.641,160.800 125.779 C 163.339 127.811,173.978 136.210,178.749 139.948 C 182.675 143.025,182.652 142.678,179.100 145.350 C 177.505 146.551,174.379 148.943,172.153 150.666 C 169.928 152.390,167.408 154.337,166.553 154.994 C 165.699 155.651,163.830 157.105,162.400 158.226 C 160.970 159.346,155.750 163.396,150.800 167.226 C 145.850 171.055,141.740 174.326,141.667 174.494 C 141.420 175.060,140.373 174.806,139.483 173.965 C 138.997 173.506,137.070 171.935,135.200 170.475 C 133.330 169.014,129.532 166.014,126.760 163.809 C 118.892 157.549,118.726 157.420,118.107 157.059 C 116.856 156.327,116.796 157.853,116.897 188.223 C 117.012 222.689,116.759 220.181,119.868 217.654 C 122.686 215.362,132.246 207.874,137.800 203.608 C 139.340 202.425,140.690 201.354,140.800 201.228 C 140.910 201.103,142.530 199.834,144.400 198.410 C 146.270 196.985,148.713 195.095,149.829 194.210 C 150.945 193.324,153.915 190.993,156.429 189.029 C 158.943 187.065,161.990 184.681,163.200 183.731 C 164.410 182.782,166.930 180.814,168.800 179.359 C 173.049 176.053,174.326 175.057,177.209 172.800 C 178.475 171.810,181.007 169.830,182.838 168.400 C 184.668 166.970,188.063 164.313,190.383 162.495 C 192.702 160.677,195.590 158.414,196.800 157.466 C 198.010 156.518,200.983 154.214,203.406 152.348 C 205.829 150.481,208.169 148.662,208.606 148.305 C 209.846 147.294,214.043 144.019,217.201 141.600 C 219.654 139.721,224.688 135.792,234.800 127.864 C 236.010 126.916,238.349 125.073,239.998 123.770 C 241.647 122.466,244.061 120.590,245.362 119.600 C 248.674 117.079,249.732 116.260,254.656 112.400 C 257.042 110.530,259.625 108.513,260.397 107.917 C 262.642 106.184,269.876 100.533,275.397 96.200 C 278.201 94.000,281.418 91.515,282.547 90.678 C 285.401 88.562,290.472 86.206,293.800 85.449 C 296.278 84.886,297.247 84.746,300.610 84.467 C 301.056 84.430,302.926 84.589,304.765 84.819 " stroke="none" fill="#6c6c74" fill-rule="evenodd"></path></g></svg>