<svg width="25" height="25" viewBox="0 0 25 25" fill="none" xmlns="http://www.w3.org/2000/svg"><g clip-path="url(#clip0_2_2)"><path d="M24.9688 12.4594C24.9688 5.57826 19.3905 0 12.5094 0C5.62827 0 0.0500031 5.57826 0.0500031 12.4594V12.5406C0.0500031 19.4217 5.62827 25 12.5094 25C19.3905 25 24.9688 19.4217 24.9688 12.5406V12.4594Z" fill="black"></path><path d="M24.9688 12.4594C24.9688 5.57826 19.3905 0 12.5094 0C5.62827 0 0.0500031 5.57826 0.0500031 12.4594V12.5406C0.0500031 19.4217 5.62827 25 12.5094 25C19.3905 25 24.9688 19.4217 24.9688 12.5406V12.4594Z" fill="#3C69F7"></path><path d="M13.0921 4.69231H9.14521L6.16941 11.0492C5.36296 12.7719 4.95975 13.6332 5.08191 14.2912C5.18941 14.8699 5.57291 15.3405 6.17751 15.6354C6.86486 15.9706 7.97006 15.9706 10.1805 15.9706H13.0749L14.3228 13.3049C14.39 13.1613 14.4236 13.0895 14.4135 13.0347C14.4045 12.9865 14.3725 12.9472 14.3222 12.9227C14.2649 12.8947 14.1728 12.8947 13.9886 12.8947H11.3573C10.6205 12.8947 10.2521 12.8947 10.023 12.783C9.82146 12.6847 9.69361 12.5278 9.65776 12.3349C9.61706 12.1156 9.75146 11.8285 10.0203 11.2542L13.0921 4.69231Z" fill="white"></path><path d="M11.9268 20.3077H15.8736L18.8495 13.9508C19.6559 12.2281 20.0591 11.3668 19.9369 10.7088C19.8295 10.1301 19.446 9.65951 18.8413 9.36461C18.154 9.02936 17.0488 9.02936 14.8383 9.02936H11.944L10.696 11.6952C10.6288 11.8387 10.5952 11.9105 10.6054 11.9653C10.6144 12.0135 10.6463 12.0528 10.6967 12.0773C10.754 12.1053 10.8461 12.1053 11.0303 12.1053H13.6615C14.3984 12.1053 14.7668 12.1053 14.9959 12.217C15.1974 12.3153 15.3253 12.4722 15.3611 12.6651C15.4018 12.8844 15.2674 13.1715 14.9986 13.7458L11.9268 20.3077Z" fill="white"></path></g><defs><clipPath id="clip0_2_2"><rect width="24.95" height="25" fill="white" transform="translate(0.0500031)"></rect></clipPath></defs></svg>