<svg width="130" height="38" viewBox="0 0 130 38" fill="none" xmlns="http://www.w3.org/2000/svg">
    <path d="M97.5051 20.7922H95.7763C95.6424 20.7881 95.5153 20.7233 95.4207 20.611C95.3258 20.4987 95.2712 20.3476 95.2678 20.1889V19.7062C95.2712 19.5475 95.3258 19.3964 95.4207 19.2841C95.5153 19.1718 95.6424 19.1069 95.7763 19.1029H97.2542C97.3892 19.1029 97.5183 19.0393 97.6139 18.9261C97.7092 18.813 97.7627 18.6595 97.7627 18.4995C97.7627 18.3395 97.7092 18.186 97.6139 18.0729C97.5183 17.9597 97.3892 17.8961 97.2542 17.8961H95.7627C95.6288 17.8921 95.5017 17.8272 95.4071 17.7149C95.3122 17.6026 95.2576 17.4515 95.2542 17.2928V16.8101C95.2576 16.6514 95.3122 16.5003 95.4071 16.388C95.5017 16.2757 95.6288 16.2109 95.7627 16.2068H97.4576C97.5925 16.2068 97.7217 16.1432 97.8173 16.03C97.9125 15.9169 97.9661 15.7634 97.9661 15.6034C97.9661 15.4434 97.9125 15.2899 97.8173 15.1768C97.7217 15.0636 97.5925 15.0001 97.4576 15.0001H95.4237C95.3444 14.9982 95.2671 15.0293 95.2051 15.0882C95.1431 15.1469 95.1007 15.2296 95.0847 15.3219L94 21.3956V21.5162C94.019 21.6572 94.0817 21.7847 94.1759 21.874C94.2698 21.9632 94.3885 22.0077 94.5085 21.9989H97.4915C97.6264 21.9989 97.7556 21.9354 97.8512 21.8222C97.9464 21.709 98 21.5556 98 21.3956C98 21.2355 97.9464 21.0821 97.8512 20.9689C97.7556 20.8558 97.6264 20.7922 97.4915 20.7922H97.5051Z" fill="white"/>
    <path d="M52.2962 15H51.4482C51.3235 15.0015 51.2014 15.0362 51.0967 15.1003C50.9916 15.1643 50.908 15.255 50.8546 15.3621L48.9891 19.6264C48.9891 19.6371 48.9844 19.6473 48.9768 19.6549C48.9687 19.6624 48.9581 19.6666 48.9467 19.6666C48.9043 19.6666 48.9043 19.6666 48.9043 19.6264L47.0387 15.3621C46.9933 15.2533 46.9204 15.1566 46.8267 15.0805C46.6571 14.9598 46.4451 15.1207 46.4027 15.3219L45.0035 21.477C44.9925 21.5467 45.0074 21.6179 45.0459 21.6782C45.0968 21.7754 45.1753 21.8572 45.2728 21.9141C45.3703 21.971 45.4827 22.0007 45.5971 22H45.8515C46.016 21.9919 46.1708 21.9253 46.2857 21.8134C46.4006 21.7015 46.4663 21.5526 46.4706 21.3965V17.454C46.4706 17.4434 46.4752 17.4331 46.4828 17.4256C46.4909 17.418 46.5015 17.4138 46.5129 17.4138C46.5244 17.4138 46.535 17.418 46.5431 17.4256C46.5507 17.4331 46.5553 17.4434 46.5553 17.454L48.2937 21.5977C48.3399 21.7096 48.4222 21.8049 48.5286 21.8699C48.6354 21.9349 48.7609 21.9664 48.8873 21.9597H49.0569C49.1815 21.9582 49.3037 21.9235 49.4084 21.8595C49.5135 21.7955 49.5971 21.7048 49.6505 21.5977L51.3888 17.4943C51.3888 17.4836 51.3935 17.4734 51.4011 17.4658C51.4092 17.4583 51.4198 17.454 51.4312 17.454C51.4427 17.454 51.4533 17.4583 51.4613 17.4658C51.469 17.4734 51.4736 17.4836 51.4736 17.4943V21.3965C51.4779 21.5553 51.5461 21.7064 51.6649 21.8187C51.7832 21.931 51.9421 21.9959 52.1096 22H52.364C52.5315 21.9959 52.6905 21.931 52.8088 21.8187C52.9275 21.7064 52.9958 21.5553 53 21.3965V15.6035C52.9707 15.4426 52.886 15.2956 52.7583 15.1862C52.6303 15.0768 52.4679 15.0112 52.2962 15Z" fill="white"/>
    <path d="M71.3311 18.2657H69.3693C69.2039 18.2657 69.0452 18.3236 68.9279 18.4269C68.8107 18.53 68.7452 18.67 68.7452 18.816C68.7452 18.9619 68.8107 19.1019 68.9279 19.2051C69.0452 19.3083 69.2039 19.3663 69.3693 19.3663H69.726C70.0827 19.3663 70.4394 19.6415 70.261 19.9559C69.9935 20.4669 69.4585 20.7421 68.6114 20.7421C67.363 20.7421 66.6051 19.9166 66.6051 18.5015C66.6051 17.0864 67.4076 16.2609 68.6114 16.2609C68.8905 16.2482 69.1687 16.2994 69.4188 16.4097C69.669 16.5199 69.8821 16.6853 70.0381 16.8899C70.1077 17.0045 70.2102 17.101 70.3355 17.17C70.4608 17.2389 70.6039 17.2779 70.7515 17.2829H71.1528C71.2428 17.2894 71.3338 17.2764 71.4167 17.2451C71.5001 17.2137 71.5732 17.165 71.6303 17.1031C71.6873 17.0411 71.7266 16.9679 71.7444 16.8896C71.7622 16.8114 71.7578 16.7305 71.7324 16.654C71.4541 16.1386 71.0096 15.7071 70.4546 15.4134C69.899 15.1198 69.2583 14.977 68.6114 15.003C66.5605 15.003 65 16.3002 65 18.5015C65 20.7028 66.4713 22 68.656 22C70.6177 22 71.9999 20.8993 71.9999 19.1305V18.8553C72.0016 18.7774 71.9856 18.7 71.9526 18.6278C71.9196 18.5555 71.8706 18.4898 71.8082 18.4348C71.7457 18.3797 71.6713 18.3363 71.5892 18.3073C71.5072 18.2782 71.4194 18.264 71.3311 18.2657Z" fill="white"/>
    <path d="M60.0676 15.4023C60.0276 15.2856 59.9542 15.1843 59.8572 15.1124C59.7597 15.0404 59.6437 15.0012 59.5241 15H58.5147C58.3952 15.0012 58.2791 15.0404 58.1817 15.1124C58.0846 15.1843 58.0112 15.2856 57.9712 15.4023L56.0302 21.1954C56.0011 21.286 55.9929 21.3823 56.0061 21.4768C56.0193 21.5713 56.0539 21.6612 56.1067 21.7394C56.1595 21.8176 56.2294 21.8819 56.3105 21.9272C56.3912 21.9724 56.4817 21.9973 56.5737 22H56.8843C57.0038 21.9988 57.1199 21.9596 57.2173 21.8876C57.3144 21.8157 57.3878 21.7144 57.4278 21.5977L57.6607 20.8333C57.7007 20.7166 57.774 20.6154 57.8711 20.5434C57.9685 20.4714 58.0846 20.4322 58.2042 20.431H59.7958C59.9154 20.4322 60.0315 20.4714 60.1289 20.5434C60.226 20.6154 60.2993 20.7166 60.3393 20.8333L60.5722 21.5977C60.6122 21.7144 60.6856 21.8157 60.7827 21.8876C60.8801 21.9596 60.9962 21.9988 61.1157 22H61.4263C61.5183 21.9973 61.6088 21.9724 61.6895 21.9272C61.7706 21.8819 61.8405 21.8176 61.8933 21.7394C61.9461 21.6612 61.9807 21.5713 61.9939 21.4768C62.0071 21.3823 61.9989 21.286 61.9698 21.1954L60.0676 15.4023ZM59.0815 19.2242H58.9651C58.8731 19.2215 58.7826 19.1966 58.7015 19.1513C58.6207 19.1061 58.5508 19.0418 58.498 18.9635C58.4452 18.8853 58.4107 18.7954 58.3975 18.7009C58.3843 18.6065 58.3925 18.5101 58.4216 18.4196L59.0039 16.569C59.0039 16.5583 59.0082 16.5481 59.0151 16.5405C59.0225 16.533 59.0322 16.5288 59.0427 16.5288C59.0532 16.5288 59.0629 16.533 59.0703 16.5405C59.0773 16.5481 59.0815 16.5583 59.0815 16.569L59.6638 18.4196C59.6848 18.5129 59.686 18.61 59.6669 18.7038C59.6483 18.7976 59.6095 18.8861 59.554 18.9628C59.4985 19.0395 59.4274 19.1027 59.3459 19.1478C59.264 19.193 59.1739 19.219 59.0815 19.2242Z" fill="white"/>
    <path d="M75.5946 15H75.4054C75.2986 15.0041 75.1973 15.069 75.1219 15.1813C75.0462 15.2936 75.0027 15.4447 75 15.6035V21.3965C75.0027 21.5553 75.0462 21.7065 75.1219 21.8188C75.1973 21.931 75.2986 21.9959 75.4054 22H75.5946C75.7014 21.9959 75.8027 21.931 75.8781 21.8188C75.9538 21.7065 75.9973 21.5553 76 21.3965V15.6035C75.993 15.4468 75.9481 15.2993 75.8735 15.1883C75.7989 15.0773 75.6997 15.0104 75.5946 15Z" fill="white"/>
    <path d="M82.739 16.2978C83.0464 16.2905 83.3505 16.3518 83.6223 16.4759C83.8936 16.5999 84.1239 16.7824 84.2894 17.0056C84.3482 17.1426 84.454 17.2609 84.5922 17.3452C84.7308 17.4294 84.8954 17.4755 85.0646 17.4775H85.3837C85.4759 17.484 85.5689 17.471 85.6537 17.4396C85.739 17.4083 85.8137 17.3595 85.8721 17.2976C85.9305 17.2356 85.9706 17.1623 85.9888 17.084C86.0071 17.0058 86.003 16.9249 85.9765 16.8483C85.5205 15.6686 84.2894 15 82.6934 15C80.5959 15 79 16.2584 79 18.5C79 20.7416 80.5503 22 82.6934 22C84.3806 22 85.5205 21.2135 85.9309 20.2303C85.9574 20.1538 85.9615 20.0729 85.9432 19.9946C85.925 19.9163 85.8849 19.8431 85.8265 19.7811C85.7681 19.7192 85.6934 19.6704 85.6081 19.639C85.5233 19.6077 85.4303 19.5947 85.3381 19.6011H84.9734C84.8074 19.6138 84.6482 19.6641 84.5119 19.747C84.376 19.8298 84.2675 19.9424 84.1982 20.073C84.0463 20.2982 83.8257 20.4832 83.5603 20.608C83.2949 20.7328 82.9953 20.7926 82.6934 20.7809C81.5079 20.7809 80.6871 19.9944 80.6871 18.5393C80.6871 17.0843 81.5079 16.2978 82.739 16.2978Z" fill="white"/>
    <path d="M104.531 15H102.612C102.451 15.0041 102.298 15.069 102.184 15.1813C102.07 15.2936 102.004 15.4447 102 15.6035V21.3965C102.004 21.5553 102.07 21.7065 102.184 21.8188C102.298 21.931 102.451 21.9959 102.612 22H104.531C106.694 22 108 20.6724 108 18.5C108 16.3276 106.653 15 104.531 15ZM104.449 20.7127H104.122C103.961 20.7086 103.808 20.6437 103.694 20.5314C103.58 20.4191 103.514 20.268 103.51 20.1092V16.8506C103.514 16.6918 103.58 16.5407 103.694 16.4284C103.808 16.3161 103.961 16.2512 104.122 16.2471H104.449C105.796 16.2471 106.49 16.9311 106.49 18.4598C106.49 19.9885 105.796 20.7127 104.449 20.7127Z" fill="white"/>
    <path d="M114.491 20.7931H112.763C112.629 20.789 112.502 20.7242 112.407 20.6119C112.312 20.4996 112.258 20.3484 112.254 20.1896V19.7069C112.258 19.5481 112.312 19.397 112.407 19.2847C112.502 19.1724 112.629 19.1075 112.763 19.1035H114.254C114.389 19.1035 114.518 19.0399 114.614 18.9267C114.709 18.8135 114.763 18.6601 114.763 18.5C114.763 18.3399 114.709 18.1864 114.614 18.0733C114.518 17.9601 114.389 17.8965 114.254 17.8965H112.763C112.629 17.8925 112.502 17.8276 112.407 17.7153C112.312 17.603 112.258 17.4519 112.254 17.2931V16.8104C112.258 16.6516 112.312 16.5004 112.407 16.3881C112.502 16.2758 112.629 16.211 112.763 16.2069H114.458C114.592 16.2069 114.722 16.1433 114.817 16.0301C114.912 15.917 114.966 15.7635 114.966 15.6035C114.966 15.4434 114.912 15.2899 114.817 15.1768C114.722 15.0636 114.592 15 114.458 15H111.508C111.375 15.0041 111.247 15.0689 111.153 15.1812C111.058 15.2935 111.003 15.4447 111 15.6035V21.3966C111.003 21.5553 111.058 21.7065 111.153 21.8188C111.247 21.9311 111.375 21.9959 111.508 22H114.491C114.625 21.9959 114.752 21.9311 114.847 21.8188C114.942 21.7065 114.997 21.5553 115 21.3966C115.001 21.3168 114.989 21.2377 114.964 21.1637C114.939 21.0897 114.902 21.0226 114.854 20.9662C114.807 20.9098 114.75 20.8654 114.688 20.8357C114.625 20.806 114.559 20.7915 114.491 20.7931Z" fill="white"/>
    <path d="M124.359 15H124.071C123.909 15.0041 123.755 15.0686 123.64 15.1803C123.525 15.2919 123.459 15.4422 123.455 15.6V19.32C123.455 19.36 123.455 19.36 123.414 19.36H123.373L120.496 15.28C120.44 15.2038 120.366 15.1421 120.28 15.1003C120.194 15.0584 120.099 15.0377 120.003 15.04H119.616C119.454 15.0441 119.3 15.1086 119.185 15.2202C119.07 15.3319 119.004 15.4821 119 15.64V21.4C119.004 21.5579 119.07 21.7081 119.185 21.8198C119.3 21.9314 119.454 21.9959 119.616 22H119.904C120.066 21.9959 120.221 21.9314 120.335 21.8198C120.45 21.7081 120.516 21.5579 120.521 21.4V17.64C120.521 17.6294 120.525 17.6192 120.532 17.6117C120.54 17.6042 120.551 17.6 120.562 17.6H120.603L123.521 21.68C123.576 21.7562 123.65 21.818 123.736 21.8598C123.822 21.9017 123.918 21.9223 124.014 21.92H124.384C124.546 21.9159 124.7 21.8514 124.815 21.7398C124.93 21.6281 124.996 21.4779 125 21.32V15.56C124.972 15.4107 124.894 15.2746 124.778 15.1732C124.662 15.0718 124.515 15.0109 124.359 15Z" fill="white"/>
    <path d="M27.6731 13.8373L29.5473 16.0144C29.7619 16.2589 29.9521 16.4601 30.0291 16.5744C30.5896 17.1252 30.9039 17.8695 30.9034 18.645C30.8508 19.5601 30.2476 20.1832 29.689 20.8497L28.3774 22.3721L27.6933 23.1609C27.6688 23.1881 27.653 23.2217 27.6478 23.2576C27.6426 23.2935 27.6484 23.33 27.6643 23.3627C27.6803 23.3955 27.7057 23.4229 27.7375 23.4417C27.7692 23.4605 27.8059 23.4698 27.8431 23.4686H34.6803C35.7246 23.4686 37.0403 24.3362 36.9633 25.6535C36.9612 26.2522 36.7161 26.8259 36.2816 27.2492C35.8471 27.6726 35.2584 27.9113 34.6438 27.9134H23.9367C23.2324 27.9134 21.3379 27.9884 20.8076 26.3911C20.6948 26.0572 20.6794 25.6995 20.7631 25.3577C20.9172 24.8523 21.1611 24.377 21.4836 23.9536C22.022 23.1648 22.6049 22.3761 23.1798 21.6109C23.9206 20.6091 24.6816 19.6389 25.4305 18.6174C25.4571 18.5842 25.4715 18.5432 25.4715 18.5011C25.4715 18.4589 25.4571 18.418 25.4305 18.3847L22.7102 15.2295C22.6925 15.2067 22.6695 15.1881 22.6432 15.1754C22.6168 15.1626 22.5878 15.1559 22.5584 15.1559C22.529 15.1559 22.4999 15.1626 22.4736 15.1754C22.4473 15.1881 22.4243 15.2067 22.4066 15.2295C21.6779 16.1879 18.4881 20.4317 17.808 21.2915C17.1279 22.1513 15.452 22.1986 14.525 21.2915L10.2706 17.1306C10.2434 17.104 10.2087 17.0859 10.171 17.0785C10.1332 17.0712 10.0941 17.0749 10.0585 17.0893C10.0229 17.1037 9.99253 17.128 9.9712 17.1592C9.94987 17.1904 9.93853 17.2271 9.93861 17.2646V25.267C9.94861 25.8349 9.77604 26.3916 9.44499 26.8591C9.11399 27.3266 8.64113 27.6815 8.0927 27.874C7.74227 27.9928 7.36778 28.0283 7.00038 27.9775C6.63302 27.9267 6.28347 27.791 5.98084 27.5818C5.67821 27.3727 5.43128 27.096 5.26065 26.775C5.09007 26.454 5.00069 26.0979 5 25.7363V11.3486C5.02441 10.8302 5.21588 10.3323 5.54725 9.92594C5.87863 9.51954 6.33302 9.22523 6.84591 9.0848C7.28585 8.97062 7.74895 8.97176 8.18828 9.08812C8.62761 9.20446 9.02756 9.43194 9.3476 9.74741L15.8892 16.1288C15.9088 16.1482 15.9325 16.1631 15.9587 16.1726C15.9849 16.182 16.0129 16.1858 16.0407 16.1835C16.0685 16.1813 16.0954 16.173 16.1197 16.1595C16.1439 16.146 16.1647 16.1274 16.1807 16.1051L20.8278 9.8381C21.0426 9.58369 21.3118 9.37811 21.6167 9.23572C21.9216 9.09333 22.2547 9.01761 22.5928 9.01381H34.6803C35.0111 9.01437 35.3379 9.08368 35.639 9.21719C35.9401 9.35073 36.2084 9.54535 36.4261 9.78803C36.6438 10.0307 36.8057 10.3159 36.9012 10.6245C36.9966 10.9331 37.0233 11.258 36.9795 11.5774C36.8944 12.1316 36.6058 12.6368 36.1673 12.9995C35.7289 13.3621 35.1703 13.5575 34.5952 13.5494H27.8269C27.7929 13.5502 27.7598 13.5599 27.7309 13.5774C27.702 13.595 27.6785 13.6197 27.6628 13.6491C27.6471 13.6785 27.6397 13.7115 27.6416 13.7446C27.6434 13.7777 27.6543 13.8097 27.6731 13.8373Z" fill="white"/>
</svg>
