<svg width="130" height="38" viewBox="0 0 130 38" fill="none" xmlns="http://www.w3.org/2000/svg">
    <g clip-path="url(#clip0_1286_2386)">
        <path d="M32.6101 14.7472C34.6203 14.7662 36.2069 16.4564 36.1785 18.5471C36.1499 20.6386 34.5114 22.2884 32.5092 22.2421C30.5296 22.1965 28.9773 20.5428 28.9824 18.4856C28.9876 16.3956 30.6048 14.7282 32.6101 14.7472Z" fill="#C74AE3"/>
        <path d="M37.2857 26.4951C34.1453 29.1261 28.5338 28.1846 25.6272 24.6438C22.4299 20.7489 22.8032 14.9055 26.4702 11.4453C30.0926 8.0277 35.6969 8.21617 39.1134 11.8709C42.4297 15.4185 42.5766 21.3044 39.4728 24.6263C38.7481 23.8367 38.0227 23.0455 37.2623 22.2171C38.4391 20.5057 38.8037 18.5473 38.1002 16.4444C37.0498 13.305 33.7225 11.6482 30.688 12.7183C27.6894 13.7754 26.048 17.1337 26.9845 20.2952C27.9311 23.4917 31.1424 25.3073 34.2243 24.3223C34.8378 24.1263 35.1783 24.241 35.575 24.716C36.0994 25.3453 36.7065 25.9001 37.2857 26.4951ZM8 14.7618C8 14.0034 8.13952 13.2905 8.41784 12.6255C8.69615 11.9606 9.07527 11.3784 9.5552 10.8799C10.0351 10.3813 10.5939 9.98691 11.2331 9.69736C11.8723 9.40781 12.5567 9.26266 13.2865 9.26266H21.3759V12.9333H13.2865C13.0403 12.9333 12.8109 12.9805 12.5977 13.0739C12.3843 13.1682 12.1981 13.2981 12.0381 13.4638C11.8781 13.6302 11.7532 13.824 11.6634 14.0459C11.5728 14.2679 11.5282 14.5065 11.5282 14.7626C11.5282 15.0187 11.5728 15.2596 11.6634 15.4853C11.7532 15.7111 11.8789 15.9071 12.0381 16.0736C12.1981 16.24 12.3843 16.3699 12.5977 16.4634C12.8109 16.5577 13.0403 16.604 13.2865 16.604H16.8147C17.5445 16.604 18.2304 16.7469 18.8739 17.0326C19.5176 17.3184 20.0786 17.7105 20.5584 18.2091C21.0384 18.7076 21.4146 19.2921 21.6892 19.9616C21.9638 20.6311 22.1013 21.3455 22.1013 22.104C22.1013 22.8631 21.9638 23.5753 21.6892 24.2403C21.4146 24.9053 21.0376 25.4874 20.5584 25.9859C20.0792 26.4844 19.5176 26.8789 18.8739 27.1693C18.2304 27.4595 17.5437 27.6039 16.8147 27.6039H8.98323V23.9332H16.8147C17.0609 23.9332 17.2895 23.8861 17.5036 23.7926C17.7169 23.6991 17.9031 23.5684 18.0631 23.4027C18.2231 23.2371 18.348 23.0426 18.4378 22.8206C18.5277 22.5987 18.573 22.3601 18.573 22.104C18.573 21.8478 18.5277 21.6093 18.4378 21.3873C18.3473 21.1654 18.2224 20.9716 18.0631 20.8052C17.9031 20.6387 17.7169 20.5088 17.5036 20.4153C17.2903 20.3218 17.0609 20.2747 16.8147 20.2747H13.2865C12.5567 20.2747 11.8723 20.1295 11.2331 19.84C10.5939 19.5504 10.0344 19.156 9.5552 18.6567C9.076 18.1582 8.69615 17.5738 8.41784 16.905C8.13952 16.2354 8 15.5211 8 14.7618ZM56.3417 27.6039H43.9981V9.2619H47.5264V23.9332H56.3411V27.6039H56.3417ZM56.7845 14.7618C56.7845 14.0034 56.924 13.2905 57.2023 12.6255C57.4806 11.9606 57.8597 11.3784 58.3397 10.8799C58.8195 10.3813 59.3784 9.98691 60.0176 9.6966C60.6567 9.40705 61.3413 9.2619 62.071 9.2619H70.1603V12.9326H62.071C61.8248 12.9326 61.5954 12.9797 61.3821 13.0732C61.1688 13.1674 60.9825 13.2974 60.8226 13.463C60.6626 13.6295 60.5377 13.8233 60.4479 14.0452C60.3572 14.2671 60.3127 14.5057 60.3127 14.7618C60.3127 15.018 60.3572 15.2589 60.4479 15.4846C60.5377 15.7103 60.6634 15.9064 60.8226 16.0728C60.9825 16.2392 61.1688 16.3692 61.3821 16.4627C61.5954 16.5569 61.8248 16.6033 62.071 16.6033H65.5992C66.3289 16.6033 67.0149 16.7461 67.6584 17.0319C68.3019 17.3176 68.8629 17.7098 69.3429 18.2083C69.8229 18.7069 70.199 19.2913 70.4737 19.9608C70.7483 20.6304 70.8856 21.3448 70.8856 22.1033C70.8856 22.8624 70.7483 23.5746 70.4737 24.2395C70.199 24.9045 69.8221 25.4866 69.3429 25.9852C68.8637 26.4837 68.3019 26.8781 67.6584 27.1684C67.0149 27.4588 66.3282 27.6032 65.5992 27.6032H57.7677V23.9325H65.5992C65.8454 23.9325 66.0747 23.8853 66.288 23.7919C66.5014 23.6984 66.6876 23.5677 66.8475 23.402C67.0076 23.2355 67.1324 23.0417 67.2223 22.8199C67.3121 22.598 67.3574 22.3593 67.3574 22.1033C67.3574 21.8471 67.3121 21.6084 67.2223 21.3866C67.1318 21.1647 67.0068 20.9709 66.8475 20.8044C66.6876 20.638 66.5014 20.508 66.288 20.4145C66.0747 20.3211 65.8454 20.2739 65.5992 20.2739H62.071C61.3413 20.2739 60.6567 20.1288 60.0176 19.8392C59.3784 19.5497 58.8188 19.1553 58.3397 18.656C57.8605 18.1574 57.4806 17.573 57.2023 16.9034C56.9233 16.2354 56.7845 15.5211 56.7845 14.7618ZM87.2741 25.7237C86.4544 26.4571 85.5363 27.0202 84.5201 27.4123C83.504 27.8046 82.4507 28.0006 81.3607 28.0006C80.5251 28.0006 79.7194 27.8873 78.9451 27.6617C78.1707 27.436 77.4454 27.1161 76.769 26.7026C76.0925 26.2892 75.4761 25.7921 74.9187 25.2123C74.3612 24.6324 73.8836 23.991 73.4862 23.2872C73.0888 22.5835 72.7813 21.8288 72.5643 21.0232C72.3473 20.2177 72.2386 19.3795 72.2386 18.51C72.2386 17.6406 72.3473 16.8001 72.5643 15.99C72.7813 15.1798 73.0888 14.4229 73.4862 13.7199C73.8836 13.0162 74.3606 12.3748 74.9187 11.7949C75.4761 11.215 76.0925 10.7188 76.769 10.3046C77.4454 9.89116 78.1707 9.57121 78.9451 9.34549C79.7194 9.11978 80.5251 9.00654 81.3607 9.00654C82.4507 9.00654 83.504 9.20034 84.5201 9.58868C85.5363 9.97703 86.4544 10.5417 87.2741 11.2834L85.4055 14.4814C84.889 13.9016 84.2783 13.4562 83.5734 13.1446C82.8684 12.8338 82.1307 12.678 81.3607 12.678C80.5821 12.678 79.8524 12.8315 79.1723 13.1385C78.4915 13.4456 77.8976 13.8613 77.3899 14.3856C76.8815 14.91 76.4804 15.5287 76.1853 16.24C75.8902 16.9521 75.7426 17.709 75.7426 18.51C75.7426 19.3118 75.8902 20.0642 76.1853 20.7679C76.4804 21.4716 76.8815 22.0872 77.3899 22.6161C77.8983 23.1452 78.4921 23.5623 79.1723 23.8694C79.8524 24.1764 80.5821 24.3299 81.3607 24.3299C82.1307 24.3299 82.8684 24.1741 83.5734 23.8633C84.2783 23.5525 84.889 23.1063 85.4055 22.5265L87.2741 25.7237ZM103.22 27.6039H99.6915V23.9332H92.6343V27.6039H89.1178V16.604C89.1178 15.5895 89.3018 14.6364 89.6707 13.745C90.0396 12.8543 90.5415 12.0761 91.177 11.4103C91.8118 10.7454 92.5584 10.221 93.4144 9.8372C94.2706 9.45341 95.1866 9.2619 96.1625 9.2619C97.1377 9.2619 98.0537 9.45341 98.9106 9.8372C99.7667 10.221 100.515 10.7454 101.155 11.4103C101.794 12.0753 102.298 12.8535 102.667 13.745C103.036 14.6364 103.22 15.5895 103.22 16.604V27.6039ZM99.6915 20.2747V16.604C99.6915 16.1009 99.5994 15.6252 99.4146 15.1775C99.2305 14.7299 98.9785 14.34 98.6585 14.0072C98.3386 13.6743 97.9639 13.4121 97.5337 13.2206C97.1034 13.0291 96.6461 12.9326 96.1625 12.9326C95.679 12.9326 95.2216 13.0283 94.7914 13.2206C94.3611 13.4121 93.9864 13.6743 93.6664 14.0072C93.3465 14.34 93.0945 14.7299 92.9104 15.1775C92.7264 15.6252 92.6336 16.1009 92.6336 16.604V20.2747H99.6915ZM120.383 27.6039H116.609L109.81 15.5294V27.6039H106.282V9.2619H110.056L116.855 21.3493V9.2619H120.383V27.6039Z" fill="#F2FEFB"/>
    </g>
    <defs>
        <clipPath id="clip0_1286_2386">
            <rect width="113" height="19" fill="white" transform="translate(8 9.00098)"/>
        </clipPath>
    </defs>
</svg>
