<?xml version="1.0" encoding="UTF-8"?>
<svg width="30px" height="26px" viewBox="0 0 30 26" version="1.1" xmlns="http://www.w3.org/2000/svg" xmlns:xlink="http://www.w3.org/1999/xlink">
    <title>Icon / Wallet</title>
    <g id="Icon-/-Wallet" stroke="none" stroke-width="1" fill="none" fill-rule="evenodd">
        <g id="Group" transform="translate(2.000000, 1.000000)" fill-rule="nonzero">
            <path d="M3.62371373,2.76921274 C1.62240653,2.76921274 0,4.38201923 0,6.37148437 L0,11.8874459 L24.1881431,11.8874459 L24.1881431,3.89491587 C24.1881431,3.27324519 23.6811649,2.76921274 23.0557394,2.76921274 L3.62371373,2.76921274 Z" id="Path" fill="#2B4D66"></path>
            <path d="M24.1881431,10.8742969 L24.1881431,9.29832332 C24.1881431,8.67659856 23.6811649,8.17262019 23.0557394,8.17262019 L3.62371373,8.17262019 C2.62303292,8.17262019 1.81185686,7.36624399 1.81185686,6.37148437 L1.81185686,3.25236779 C0.729019252,3.87528245 0,5.03835937 0,6.37148437 L0,10.8742969 L24.1881431,10.8742969 Z" id="Path" fill="#81A7C6"></path>
            <path d="M3.47056469,0 C2.56527613,0 1.82938985,0.873828069 1.81215575,1.95957145 C1.79437374,3.08000388 2.57324566,3.99710324 3.50328957,3.99710324 L19.8072065,3.99710324 L20.4810301,4.61538462 L20.4810301,0.618281371 C20.4810301,0.276792243 20.2513085,0 19.9678921,0 L3.47056469,0 Z" id="Path" fill="#CDFFA0"></path>
            <path d="M3.5857045,2.21900841 C3.37453566,2.21900841 3.20335379,2.03192308 3.20335379,1.80113582 C3.20335379,1.57034856 3.37453566,1.38326322 3.5857045,1.38326322 L20.4747824,1.38326322 L20.4747824,2.21900841 L3.5857045,2.21900841 Z" id="Path" fill="#88BE5E"></path>
            <path d="M1.81185686,1.80113582 L1.81185686,6.37148438 C1.81185686,7.36624399 2.62303292,8.17262019 3.62371373,8.17262019 L22.3763407,8.17262019 L22.3763407,4.15941707 C22.3763407,3.85166466 22.1254088,3.60221755 21.8158245,3.60221755 L3.62371373,3.60221755 C2.62303292,3.60227163 1.81185686,2.79584135 1.81185686,1.80113582 Z" id="Path" fill="#91EC92"></path>
            <path d="M20.904156,8.17262019 L22.3762863,8.17262019 L22.3762863,4.15941707 C22.3762863,3.85166466 22.1253544,3.60221755 21.8157701,3.60221755 L20.904156,3.60221755 L20.904156,8.17262019 Z" id="Path" fill="#95D6A4"></path>
            <path d="M0,6.37148438 C0,8.36116587 1.6221889,9.97375601 3.62371373,9.97375601 L23.0557938,9.97375601 C23.6812193,9.97375601 24.1881975,10.4777344 24.1881975,11.0994591 L24.1881975,22.8742969 C24.1881975,23.4960216 23.6812193,24 23.0557938,24 L3.62371373,24 C1.62240653,24 0,22.3871935 0,20.3977284 L0,6.37148438 Z" id="Path" fill="#407093"></path>
            <path d="M21.3571066,9.97375601 C21.9825321,9.97375601 22.4895103,10.4777344 22.4895103,11.0994591 L22.4895103,12.2026262 C22.4895103,12.5134615 22.2360212,12.7654507 21.9233357,12.7654507 L21.5238142,12.7654507 C19.2171122,12.7654507 17.3030762,14.5964964 17.2807143,16.8894411 C17.2581348,19.2048317 19.1463267,21.095643 21.470385,21.095643 L21.9233357,21.095643 C22.2360212,21.095643 22.4895103,21.3476322 22.4895103,21.6584675 L22.4895103,22.8742428 C22.4895103,23.4959675 21.9825321,23.9999459 21.3571066,23.9999459 L23.0557394,23.9999459 C23.6811649,23.9999459 24.1881431,23.4959675 24.1881431,22.8742428 L24.1881431,11.0994591 C24.1881431,10.4777344 23.6811649,9.97375601 23.0557394,9.97375601 L21.3571066,9.97375601 Z" id="Path" fill="#365E7D"></path>
            <path d="M24.8675963,19.6322776 L21.470385,19.6322776 C19.9694182,19.6322776 18.752627,18.4226863 18.752627,16.930601 C18.752627,15.4385156 19.9694182,14.2289243 21.470385,14.2289243 L24.8675963,14.2289243 C25.4930218,14.2289243 26,14.7329026 26,15.3546274 L26,18.5065745 C26,19.1282993 25.4930218,19.6322776 24.8675963,19.6322776 L24.8675963,19.6322776 Z" id="Path" fill="#2B4D66"></path>
            <ellipse id="Oval" fill="#FFE07D" cx="21.470385" cy="16.930601" rx="1" ry="1"></ellipse>
            <path d="M18.4030003,8.21763822 C17.2805139,8.21763822 16.408111,7.26987981 16.219096,5.82128005 L5.09578962,5.82128005 C4.86362863,5.82128005 4.67542969,5.63419471 4.67542969,5.40340745 C4.67542969,5.17262019 4.86362863,4.98553486 5.09578962,4.98553486 L16.6124149,4.98553486 C16.8445759,4.98553486 17.0327748,5.17262019 17.0327748,5.40340745 C17.0327748,6.72479567 18.1141978,7.79976563 19.443397,7.79976563 C19.675558,7.79976563 19.863757,7.98685096 19.863757,8.21763822 L18.4030003,8.21763822 Z" id="Path" fill="#64C366"></path>
        </g>
    </g>
</svg>